<mxfile host="app.diagrams.net" agent="Mozilla/5.0 (Windows NT 10.0; Win64; x64) AppleWebKit/537.36 (KHTML, like Gecko) Chrome/132.0.0.0 Safari/537.36 OPR/117.0.0.0" version="26.1.0">
  <diagram name="PÃ¡gina-1" id="6tcr7kpxU4uOBob9N6S5">
    <mxGraphModel dx="993" dy="538" grid="1" gridSize="10" guides="1" tooltips="1" connect="1" arrows="1" fold="1" page="1" pageScale="1" pageWidth="827" pageHeight="1169" math="0" shadow="0">
      <root>
        <mxCell id="0" />
        <mxCell id="1" parent="0" />
        <mxCell id="4FfJPL8vnzDG5UeVGt9P-3" value="" style="edgeStyle=orthogonalEdgeStyle;rounded=0;orthogonalLoop=1;jettySize=auto;html=1;" edge="1" parent="1" source="4FfJPL8vnzDG5UeVGt9P-1" target="4FfJPL8vnzDG5UeVGt9P-2">
          <mxGeometry relative="1" as="geometry" />
        </mxCell>
        <mxCell id="4FfJPL8vnzDG5UeVGt9P-1" value="inico" style="ellipse;whiteSpace=wrap;html=1;" vertex="1" parent="1">
          <mxGeometry x="310" y="30" width="120" height="80" as="geometry" />
        </mxCell>
        <mxCell id="4FfJPL8vnzDG5UeVGt9P-5" value="" style="edgeStyle=orthogonalEdgeStyle;rounded=0;orthogonalLoop=1;jettySize=auto;html=1;" edge="1" parent="1" source="4FfJPL8vnzDG5UeVGt9P-2" target="4FfJPL8vnzDG5UeVGt9P-4">
          <mxGeometry relative="1" as="geometry" />
        </mxCell>
        <mxCell id="4FfJPL8vnzDG5UeVGt9P-2" value="cotacao, valorreal" style="shape=parallelogram;perimeter=parallelogramPerimeter;whiteSpace=wrap;html=1;fixedSize=1;" vertex="1" parent="1">
          <mxGeometry x="310" y="180" width="120" height="60" as="geometry" />
        </mxCell>
        <mxCell id="4FfJPL8vnzDG5UeVGt9P-7" value="" style="edgeStyle=orthogonalEdgeStyle;rounded=0;orthogonalLoop=1;jettySize=auto;html=1;" edge="1" parent="1" source="4FfJPL8vnzDG5UeVGt9P-4" target="4FfJPL8vnzDG5UeVGt9P-6">
          <mxGeometry relative="1" as="geometry" />
        </mxCell>
        <mxCell id="4FfJPL8vnzDG5UeVGt9P-4" value="resultado =&amp;nbsp;&lt;div&gt;(valorreal/cotacao)&lt;/div&gt;" style="shape=parallelogram;perimeter=parallelogramPerimeter;whiteSpace=wrap;html=1;fixedSize=1;" vertex="1" parent="1">
          <mxGeometry x="300" y="320" width="140" height="60" as="geometry" />
        </mxCell>
        <mxCell id="4FfJPL8vnzDG5UeVGt9P-9" value="" style="edgeStyle=orthogonalEdgeStyle;rounded=0;orthogonalLoop=1;jettySize=auto;html=1;" edge="1" parent="1" source="4FfJPL8vnzDG5UeVGt9P-6" target="4FfJPL8vnzDG5UeVGt9P-8">
          <mxGeometry relative="1" as="geometry" />
        </mxCell>
        <mxCell id="4FfJPL8vnzDG5UeVGt9P-6" value="resultado" style="shape=document;whiteSpace=wrap;html=1;boundedLbl=1;" vertex="1" parent="1">
          <mxGeometry x="310" y="450" width="120" height="80" as="geometry" />
        </mxCell>
        <mxCell id="4FfJPL8vnzDG5UeVGt9P-8" value="fim" style="ellipse;whiteSpace=wrap;html=1;" vertex="1" parent="1">
          <mxGeometry x="330" y="610" width="80" height="80" as="geometry" />
        </mxCell>
      </root>
    </mxGraphModel>
  </diagram>
</mxfile>
